<?xml version="1.0" encoding="utf-8"?>
<!-- Generator: Adobe Illustrator 24.3.0, SVG Export Plug-In . SVG Version: 6.00 Build 0)  -->
<svg version="1.1" id="Layer_1" xmlns="http://www.w3.org/2000/svg" xmlns:xlink="http://www.w3.org/1999/xlink" x="0px" y="0px"
	 viewBox="0 0 24 24" style="enable-background:new 0 0 24 24;" xml:space="preserve">
<style type="text/css">
	.st0{fill:#999999;}
</style>
<path class="st0" d="M22.3,11.8c0-1.4-1-2.7-2.3-3l3-8.8H8.1l3,8.8c-1.3,0.4-2.2,1.6-2.2,3c0,1,0.5,2,1.3,2.5
	c-0.3,0.4-0.7,0.9-1.1,1.2c-0.7,0.7-1.6,1.3-2.6,1.6c-0.8-0.6-1.2-1.6-0.9-2.4c1.6-0.5,2.6-2.3,2-3.9c-0.4-1.3-1.6-2.2-3-2.2
	c-1.7,0-3.1,1.4-3.1,3.1c0,0.8,0.3,1.6,0.9,2.2c0,0.1-0.1,0.2-0.1,0.3c-0.5,1-1,2-1.2,3.3C0.8,20,1.5,22,3.1,23.1
	C3.9,23.7,4.9,24,6,24c1.8,0,3.7-0.9,5.5-1.8c1.3-0.6,2.6-1.3,3.9-1.6c0.5-0.1,1-0.2,1.5-0.3c1.1-0.2,2.2-0.3,3.2-0.9
	c1.1-0.7,1.9-1.8,2.2-3.1c0.2-1,0-2-0.4-2.9C22.1,13,22.3,12.4,22.3,11.8L22.3,11.8z M20.9,11.8c0,1-0.8,1.8-1.8,1.8
	c-1,0-1.8-0.8-1.7-1.8c0-0.5,0.2-1,0.7-1.4l0,0c0.1,0,0.1-0.1,0.2-0.1c0,0,0,0,0,0c0,0,0.1,0,0.1-0.1c0,0,0,0,0,0c0,0,0.1,0,0.1,0
	c0,0,0.1,0,0.1,0c0,0,0,0,0,0c0,0,0.1,0,0.1,0c0,0,0,0,0,0c0,0,0.1,0,0.1,0h0l0.1,0c0,0,0,0,0,0c0,0,0.1,0,0.1,0h0c0,0,0.1,0,0.1,0
	h0.1c0,0,0,0,0.1,0h0c0.1,0,0.1,0,0.2,0C20.3,10.3,20.9,11,20.9,11.8L20.9,11.8z M10,1.4H21l-2.5,7.4c-0.1,0-0.2,0.1-0.3,0.1
	l-2.6-5.4l-2.6,5.3c-0.1,0-0.2-0.1-0.3-0.1L10,1.4L10,1.4z M15,11.2c-0.1-0.6-0.5-1.2-0.9-1.7l1.4-2.9l1.5,3c-0.4,0.4-0.7,1-0.9,1.6
	H15L15,11.2z M11.5,10.1C11.6,10.1,11.6,10.1,11.5,10.1l0.1,0c0,0,0.1,0,0.1,0h0c0,0,0,0,0.1,0h0.3c0,0,0,0,0.1,0c0,0,0,0,0,0
	c0,0,0,0,0.1,0c0,0,0,0,0,0l0.1,0h0c0,0,0.1,0,0.1,0c0,0,0,0,0,0c0,0,0,0,0.1,0c0,0,0,0,0,0c0,0,0.1,0,0.1,0h0c0,0,0.1,0,0.1,0h0
	c0,0,0.1,0,0.1,0c0,0,0,0,0,0c0,0,0.1,0,0.1,0l0,0c0.1,0.1,0.2,0.1,0.2,0.2l0,0c0.3,0.3,0.5,0.8,0.5,1.2c0,1-0.8,1.7-1.8,1.7
	c-0.9,0-1.7-0.8-1.7-1.7C10.2,11,10.8,10.3,11.5,10.1z M4.7,10.1c1,0,1.8,0.8,1.8,1.8s-0.8,1.8-1.8,1.8s-1.8-0.8-1.8-1.8
	S3.7,10.1,4.7,10.1z M20.9,16.1c-0.2,0.9-0.7,1.7-1.5,2.1c-0.8,0.4-1.7,0.6-2.7,0.7c-0.6,0.1-1.1,0.2-1.6,0.3
	c-1.4,0.4-2.8,1-4.2,1.7c-1.7,0.9-3.3,1.7-4.9,1.7c-0.8,0-1.5-0.2-2.2-0.7c-1.5-1.1-1.5-3-1.3-4.1c0.2-1,0.6-2,1.1-2.9
	c0-0.1,0-0.1,0.1-0.2c0.2,0.1,0.3,0.1,0.5,0.1c-0.3,1.5,0.5,3,1.9,3.7l0.3,0.1l0.3-0.1c1.2-0.4,2.3-1.1,3.3-2.1
	c0.5-0.5,1-1.1,1.4-1.7c0.2,0,0.3,0,0.5,0c1.4,0,2.6-1,3-2.3h1.2c0.4,1.4,1.6,2.3,3,2.3c0.6,0,1.1-0.2,1.6-0.4
	C20.9,15,21,15.6,20.9,16.1z"/>
</svg>
