<?xml version="1.0" encoding="utf-8"?>
<!-- Generator: Adobe Illustrator 24.3.0, SVG Export Plug-In . SVG Version: 6.00 Build 0)  -->
<svg version="1.1" id="Layer_1" xmlns="http://www.w3.org/2000/svg" xmlns:xlink="http://www.w3.org/1999/xlink" x="0px" y="0px"
	 viewBox="0 0 500 500" style="enable-background:new 0 0 500 500;" xml:space="preserve">
<style type="text/css">
	.st0{fill:#FFFFFF;}
</style>
<rect class="st0" width="500" height="500"/>
<g>
	<path d="M177.1,281.8l-15.6,3.4l42.2-110.8c2-5.4,4.4-9.1,7.1-11.2c2.7-2,6.4-3.1,11.2-3.1h42.3c3.2,0,5.5,0.6,7,1.9s2.2,3,2.2,5.4
		c0,1.9-0.5,3.5-1.5,4.8c-1,1.3-2.5,2.3-4.4,2.9l-5.5,1.8c-2.8,0.9-4.6,2.1-5.6,3.6c-1,1.5-1.3,3.8-1.1,6.9l8.6,121.8
		c0.2,3,0.7,5.1,1.7,6.3c1,1.2,2.6,2.2,4.9,2.9l5.4,1.8c1.8,0.6,3.2,1.5,4.1,2.8c0.9,1.2,1.4,2.8,1.4,4.6c0,2.2-0.8,4-2.2,5.4
		c-1.5,1.5-3.8,2.2-7,2.2h-64.9c-3.2,0-5.6-0.6-7.2-1.9c-1.5-1.3-2.3-3.1-2.3-5.3c0-1.8,0.5-3.4,1.4-4.8c0.9-1.3,2.5-2.3,4.6-3
		l5.6-1.8c2.8-0.9,4.6-2,5.5-3.4c0.9-1.3,1.3-3.3,1.1-5.9l-9.8-127.4l14.1-1l-51.9,136.6c-1.9,5.2-3.9,8.6-5.9,10.1
		c-2,1.5-4.5,2.2-7.3,2.2c-2.1,0-4-0.2-5.6-0.8c-1.7-0.5-3.2-1.7-4.8-3.5c-1.5-1.8-3-4.8-4.6-8.8L87.7,185.1l13.6-3.4L91.2,305.2
		c-0.3,3.8,0.5,6.6,2.4,8.6c1.9,2,4.4,3.7,7.5,5.2l4.8,2.1c1.4,0.7,2.5,1.5,3.3,2.6c0.8,1,1.2,2.4,1.2,4.1c0,2.2-0.8,4.1-2.2,5.4
		s-3.8,2.1-7,2.1H62.8c-3.2,0-5.5-0.6-7-1.9c-1.5-1.3-2.2-3.1-2.2-5.3c0-2.2,0.6-3.8,1.8-5c1.2-1.2,2.8-2.2,4.8-3.1l3.8-1.4
		c2.7-1.2,5-2.8,6.7-4.8s2.8-4.9,3.1-8.6l9.5-113.9c0.3-4.3,0-7.6-1-9.7s-2.9-3.6-5.8-4.6l-5.4-1.6c-2.1-0.7-3.6-1.6-4.6-2.9
		c-1-1.3-1.5-2.9-1.5-4.9c0-4.8,3.1-7.2,9.4-7.2h41.8c4.4,0,8,0.9,10.7,2.8c2.7,1.8,5.1,5.5,7.2,11L177.1,281.8z"/>
	<path d="M378.8,175.3l-5.9,1.6c-2.1,0.8-3.7,1.7-4.8,2.9c-1.1,1.2-1.6,2.8-1.6,4.8v126c0,3.3,0.9,5.7,2.6,7.1s4.4,2.1,7.9,2.1h15.1
		c4.6,0,8.5-0.6,11.8-1.9c3.3-1.2,6.3-3.5,9.1-6.8c2.8-3.3,5.6-8.1,8.6-14.3l7.9-17.2c1.2-2.5,2.8-4.2,4.6-5.1
		c1.8-0.9,3.9-1,6.3-0.3c2.4,0.7,4.1,1.8,5.1,3.5c1,1.7,1.1,3.9,0.4,6.8l-11.9,43.9c-1.2,3.9-2.6,6.8-4.3,8.7
		c-1.7,1.9-4.2,2.8-7.6,2.8c-2,0-4-0.4-5.9-1.2c-2-0.8-4.1-1.6-6.5-2.3s-5.3-1.1-8.7-1.1h-91.8c-3.2,0-5.5-0.6-7-1.9
		c-1.5-1.3-2.2-3.1-2.2-5.3c0-3.8,2-6.5,5.9-7.9l5.9-1.6c2.2-0.8,3.8-1.7,4.8-2.9c1-1.2,1.6-2.8,1.6-4.8v-126c0-2-0.5-3.6-1.6-4.8
		c-1-1.2-2.6-2.2-4.8-2.9l-5.9-1.6c-3.9-1.4-5.9-4-5.9-7.9c0-2.3,0.8-4.1,2.2-5.4s3.8-1.9,7-1.9h66.2c3.2,0,5.5,0.6,6.9,1.9
		c1.5,1.2,2.2,3,2.2,5.4C384.7,171.3,382.7,173.9,378.8,175.3z"/>
</g>
</svg>
