<svg id="Layer_1" data-name="Layer 1" xmlns="http://www.w3.org/2000/svg" viewBox="0 0 168.03 114.11"><defs><style>.cls-1{fill:#5d87a1;}.cls-1,.cls-3{fill-rule:evenodd;}.cls-2,.cls-3{fill:#999;}</style></defs><path class="cls-1" d="M121.57,48.68a7.42,7.42,0,0,0-1.92.23V49h.09a16.49,16.49,0,0,0,1.5,1.92c.38.75.7,1.49,1.08,2.24l.09-.09a2.64,2.64,0,0,0,1-2.34,10,10,0,0,1-.57-1c-.28-.46-.89-.7-1.26-1.07" transform="translate(-5.99 -32.94)"/><path class="cls-2" d="M46.38,136.9H39.9Q39.56,120.49,38,106H38L28.08,136.9H23.14L13.33,106h-.06q-1.08,13.89-1.37,30.87H6q.57-20.66,2.87-38.73h8l9.35,28.46h.06l9.41-28.46H43.4q2.52,21.17,3,38.73" transform="translate(-5.99 -32.94)"/><path class="cls-2" d="M74.5,108.32q-4,21.5-10.44,31.23Q59,147.07,53,147.06a11,11,0,0,1-4-1v-3.45a19.27,19.27,0,0,0,2.7.17,6.55,6.55,0,0,0,4.54-1.55A5.68,5.68,0,0,0,58.32,137a28.18,28.18,0,0,0-1.61-6.6l-7.11-22.1H56l5.1,16.53q1.73,5.63,1.44,7.86a108,108,0,0,0,5.85-24.39Z" transform="translate(-5.99 -32.94)"/><polygon class="cls-2" points="154.82 103.96 136.4 103.96 136.4 65.22 142.6 65.22 142.6 99.19 154.82 99.19 154.82 103.96"/><path class="cls-3" d="M137.57,137.84l-7.12-3.52a13.81,13.81,0,0,0,1.78-1.73q4.53-5.33,4.53-15.77,0-19.23-15.09-19.23-7.4,0-11.53,4.88-4.55,5.34-4.54,15.72,0,10.22,4,15,3.67,4.31,11.08,4.3a17.66,17.66,0,0,0,5.07-.68l9.27,5.4Zm-23.07-8.69q-2.35-3.78-2.35-12.16,0-14.64,8.89-14.64a7.48,7.48,0,0,1,6.83,3.5q2.35,3.8,2.35,12.05,0,14.76-8.89,14.75a7.45,7.45,0,0,1-6.83-3.5" transform="translate(-5.99 -32.94)"/><path class="cls-2" d="M102.9,126.16a10.28,10.28,0,0,1-3.61,8.1q-3.62,3.15-9.69,3.15a19.39,19.39,0,0,1-11-3.62l1.66-3.32a18.87,18.87,0,0,0,8.32,2.29A8.77,8.77,0,0,0,94,131.22a5.29,5.29,0,0,0,2.11-4.31c0-2.3-1.61-4.26-4.55-5.91-2.72-1.49-8.15-4.61-8.15-4.61-2.94-2.14-4.41-4.45-4.41-8.24a9.64,9.64,0,0,1,3.29-7.6,12.44,12.44,0,0,1,8.53-2.9,17.68,17.68,0,0,1,9.81,2.87l-1.5,3.32a18.94,18.94,0,0,0-7.45-1.6,6.65,6.65,0,0,0-4.59,1.44,4.77,4.77,0,0,0-1.74,3.67c0,2.29,1.64,4.28,4.66,6,2.76,1.49,8.32,4.67,8.32,4.67,3,2.14,4.53,4.42,4.53,8.18" transform="translate(-5.99 -32.94)"/><path class="cls-3" d="M168.58,85.19a21.74,21.74,0,0,0-9.08,1.31c-.7.28-1.82.28-1.92,1.17.38.37.43,1,.76,1.5A10.89,10.89,0,0,0,160.77,92c1,.75,2,1.5,3,2.15,1.82,1.13,3.88,1.78,5.66,2.91,1,.65,2,1.49,3.09,2.2.51.37.84,1,1.49,1.21v-.14c-.33-.42-.42-1-.74-1.5l-1.41-1.35A22.06,22.06,0,0,0,167,92.77c-1.49-1-4.77-2.43-5.38-4.16l-.09-.1a18.7,18.7,0,0,0,3.23-.75c1.59-.42,3-.33,4.68-.74.75-.19,1.49-.43,2.25-.66v-.42c-.85-.84-1.46-2-2.35-2.76a62,62,0,0,0-7.72-5.76c-1.45-.94-3.32-1.54-4.87-2.34-.56-.28-1.49-.42-1.82-.89a19.34,19.34,0,0,1-1.92-3.6c-1.36-2.58-2.67-5.43-3.84-8.15a49.35,49.35,0,0,0-2.39-5.33c-4.82-8-10.06-12.78-18.11-17.51a22.76,22.76,0,0,0-6-1.92c-1.17,0-2.34-.14-3.51-.18A18.46,18.46,0,0,1,117,35.86c-2.67-1.69-9.55-5.34-11.52-.52-1.26,3,1.88,6,3,7.59a21.31,21.31,0,0,1,2.39,3.51c.33.79.42,1.64.75,2.48A56.92,56.92,0,0,0,114,55.19a24.12,24.12,0,0,0,1.73,2.9c.38.52,1,.75,1.17,1.59-.65.94-.7,2.34-1.07,3.51-1.69,5.29-1,11.84,1.35,15.73.75,1.17,2.53,3.74,4.92,2.76,2.11-.84,1.64-3.51,2.25-5.85.14-.57,0-.94.32-1.31v.09c.66,1.31,1.31,2.57,1.92,3.89a26.68,26.68,0,0,0,6.09,6.27c1.12.84,2,2.29,3.41,2.81v-.15H136a5.4,5.4,0,0,0-1.08-.93,22.86,22.86,0,0,1-2.43-2.81,59.09,59.09,0,0,1-5.24-8.52c-.75-1.45-1.41-3-2-4.49-.28-.56-.28-1.4-.74-1.68a17.19,17.19,0,0,0-2.25,3.17c-.89,2-1,4.5-1.31,7.07-.19.05-.09,0-.19.1-1.49-.38-2-1.92-2.57-3.23a20.19,20.19,0,0,1-.42-12.5c.32-1,1.73-4.07,1.17-5-.29-.9-1.22-1.41-1.74-2.11a19.18,19.18,0,0,1-1.68-3c-1.12-2.62-1.69-5.52-2.9-8.14a24.89,24.89,0,0,0-2.34-3.6,24.36,24.36,0,0,1-2.58-3.65c-.23-.52-.56-1.36-.18-1.92a.73.73,0,0,1,.65-.61c.61-.52,2.34.14,3,.42a23.91,23.91,0,0,1,4.63,2.34c.66.47,1.36,1.36,2.2,1.59h1c1.49.33,3.18.09,4.59.52a29.51,29.51,0,0,1,6.73,3.23,41.42,41.42,0,0,1,14.6,16c.57,1.08.8,2.06,1.32,3.18,1,2.3,2.2,4.64,3.18,6.88A31,31,0,0,0,152.67,76c.7,1,3.51,1.49,4.78,2a33,33,0,0,1,3.23,1.31c1.59,1,3.18,2.1,4.68,3.18.74.56,3.08,1.73,3.22,2.67" transform="translate(-5.99 -32.94)"/><path class="cls-2" d="M173.05,136.9h1v-4.75h-1.45l-1.19,3.24-1.29-3.24h-1.4v4.75h.92v-3.61h.05L171,136.9h.7l1.35-3.61Zm-7.82,0h1V133h1.34v-.81h-3.77V133h1.4Z" transform="translate(-5.99 -32.94)"/></svg>