<?xml version="1.0" encoding="utf-8"?>
<!-- Generator: Adobe Illustrator 24.3.0, SVG Export Plug-In . SVG Version: 6.00 Build 0)  -->
<svg version="1.1" id="Layer_1" xmlns="http://www.w3.org/2000/svg" xmlns:xlink="http://www.w3.org/1999/xlink" x="0px" y="0px"
	 viewBox="0 0 24 24" style="enable-background:new 0 0 24 24;" xml:space="preserve">
<style type="text/css">
	.st0{fill:#999999;}
</style>
<path class="st0" d="M23.4,9.8c0,0.1,0.1,0.1,0.1,0.2C23.5,9.9,23.5,9.8,23.4,9.8c0.6,2.3-2,5-5.1,4.2h0c4.6-3,2.3-6.8,0.2-8.6
	c-1.8-1.5-0.7-2,0-2c0.2,0,0.4,0,0.5,0.1l0,0l0,0c0-1.4-5.1-1.1-0.6,3.5c2.3,2.4-0.4,7.6-3.6,3.6c0,0,0-0.1-0.1-0.1
	c0.5-0.2,0.9-0.8,0.9-1.8c0-0.3-0.1-0.7-0.2-1c0.4-0.8,0.7-1.6,0.7-2.8C16.2,2.4,14.4,0,12,0S7.8,2.4,7.8,5.1c0,1.1,0.3,2,0.7,2.8
	c-0.1,0.3-0.2,0.6-0.2,1c0,1,0.4,1.5,0.9,1.8c0,0,0,0.1-0.1,0.1c-3.2,4-5.9-1.3-3.6-3.6C10,2.5,5,2.2,4.9,3.6l0,0
	C5,3.5,5.2,3.5,5.5,3.5c0.7,0,1.8,0.5,0,2C3.4,7.2,1.1,11,5.6,14c0,0,0,0,0,0C2.5,14.8,0,12.1,0.5,9.8l0,0c0,0,0,0,0,0l0,0l0,0
	c-1.2,1.6-0.6,5.8,3.8,6.2c0,0,0,0,0.1,0c-4.4,1-3,7,0,6.1l0,0l0,0c-2.1-0.3-2.3-3-1.2-3.9c1.2-1,2.5-0.1,5.3-0.9l0,0
	c0,2.4,2.4,3.8,1.1,5.2c-1.3,1.5-3.1-0.1-2.9-1.5l0,0l0,0v0l0,0C5.7,22.6,7,24,8.6,24c0.9,0,1.9-0.5,2.4-1.6c1.2-2.3-2.4-6.4,1-6.4
	c3.3,0-0.3,4.1,1,6.4c0.6,1.1,1.5,1.6,2.4,1.6c1.6,0,3-1.4,1.8-3.3l0,0l0,0c0.3,1.5-1.5,3.1-2.9,1.6c-1.2-1.4,1.1-2.7,1.1-5.2
	c2.8,0.8,4.2-0.1,5.3,0.9c1.1,0.9,0.9,3.6-1.2,3.9h0c3.1,1,4.4-5.1,0-6.1l0,0C24.1,15.6,24.6,11.4,23.4,9.8L23.4,9.8z M3.2,10.1
	C3.1,7.9,5,6.1,5.6,5.6c0.8-0.7,1.2-1.3,1-1.7C6.5,3.6,6.3,3.4,6,3.3c-0.2,0-0.4,0-0.6,0C5.6,3.3,5.8,3.2,6,3.2c0.5,0,0.9,0.2,1,0.6
	c0.1,0.3,0.1,1-1.2,2.1c-2,1.8-2.2,3.9-1.7,5.3c0.5,1.2,1.5,2,2.6,2c0.2,0,0.4,0,0.5-0.1c-0.5,0.5-1.2,0.6-1.4,0.7
	C4.3,12.8,3.3,11.5,3.2,10.1L3.2,10.1z M8.4,17c-1.1,0.3-2.3,0.3-3,0.3c-0.9,0-1.7,0-2.3,0.6c-0.6,0.5-0.9,1.6-0.6,2.5
	c0.1,0.3,0.2,0.7,0.4,0.9c0.2,0.2,0.5,0.4,0.8,0.5l0,0c0,0,0,0,0.1,0c-1-0.2-1.6-1.2-1.6-2.1C2,18.5,2.6,17,4.9,16.7
	c0.4-0.1,0.7-0.1,1.1-0.1c0.9-0.1,1.8-0.2,2.5-0.5C8.4,16.4,8.4,16.8,8.4,17z M8.7,14.3c-0.6,1-1.9,1.2-3.1,1.3
	c-0.3,0-0.6,0.1-0.9,0.1l-0.4,0c-1.8-0.2-3.1-1-3.8-2.4c-0.3-0.6-0.4-1.4-0.4-2.1c0,0,0-0.4,0.1-0.8c-0.1,1.1,0.2,2.1,0.9,3
	c0.9,1.1,2.2,1.8,3.6,1.8c1.3,0,2.6-0.6,3.5-1.7c0.3-0.4,0.5-0.4,0.5-0.4C9,13.4,8.9,13.9,8.7,14.3L8.7,14.3z M15,8.8
	c0,1.3-1.5,1.3-1.5,0S15,7.5,15,8.8z M13.2,3.3c0,0.7-1.2,0.7-1.2,0C12,2.6,13.2,2.6,13.2,3.3z M13,11.5c0,0.7-0.1,1.4-0.1,1.4
	s-0.1-0.6-0.1-1.4c0-0.8,0.1-1.4,0.1-1.4C12.9,10.1,13,10.7,13,11.5z M12,9.9c0.1,0,0.1,0.7,0.1,1.6s0,1.6-0.1,1.6s-0.1-0.7-0.1-1.6
	C11.9,10.6,12,9.9,12,9.9z M11.8,1.7c0,0.5-0.8,0.5-0.8,0S11.8,1.2,11.8,1.7L11.8,1.7z M11.2,5.9c0-0.4,0.6-0.4,0.6,0
	C11.8,6.2,11.2,6.2,11.2,5.9z M11.3,11.5c0,0.8-0.1,1.4-0.1,1.4S11,12.3,11,11.5s0.1-1.4,0.1-1.4C11.2,10.1,11.3,10.7,11.3,11.5z
	 M11.3,4c0,0.5-0.8,0.5-0.8,0S11.3,3.5,11.3,4z M10.1,2.8c0,0.4-0.6,0.4-0.6,0S10.1,2.4,10.1,2.8z M10.1,5.3c0,0.3-0.4,0.3-0.4,0
	C9.6,5,10.1,5,10.1,5.3L10.1,5.3z M9,8.8c0-1.3,1.5-1.3,1.5,0S9,10.2,9,8.8z M14.3,17.9c-0.1,0.7-0.3,1.4-0.4,1.9
	c-0.3,1.1-0.6,2,0.2,3c0.4,0.4,0.8,0.6,1.3,0.6c0.6,0,1.3-0.3,1.7-0.9c0.2-0.3,0.3-0.5,0.3-0.8c0,0.2,0,0.3,0,0.4
	c0,0.2-0.1,0.4-0.2,0.6c-0.3,0.6-1.1,1-1.9,1c-0.9,0-1.8-0.5-2.3-1.5c-0.5-0.9-0.1-2.2,0.2-3.4c0.3-1.1,0.6-2.1,0.1-2.7
	c-0.3-0.3-0.7-0.5-1.4-0.5c-0.7,0-1.2,0.2-1.4,0.5c-0.5,0.6-0.2,1.6,0.1,2.7c0.3,1.1,0.7,2.4,0.2,3.4c-0.5,0.9-1.3,1.5-2.3,1.5
	c-0.8,0-1.5-0.4-1.9-1c-0.2-0.3-0.2-0.7-0.2-1.1c0,0.3,0.1,0.6,0.3,0.8c0.4,0.5,1,0.9,1.7,0.9c0.5,0,1-0.2,1.3-0.6
	c0.9-1,0.6-1.9,0.2-3c-0.2-0.6-0.4-1.2-0.4-2c-0.1-1,0.1-1.8,0.6-2.4c0.4-0.4,1-0.7,1.7-0.7s1.3,0.2,1.7,0.7
	C14.2,16.1,14.4,17,14.3,17.9L14.3,17.9z M17.3,13.3c1.1,0,2.1-0.8,2.6-2c0.5-1.4,0.4-3.5-1.7-5.3c-1.3-1.1-1.3-1.8-1.2-2.1
	c0.1-0.3,0.5-0.6,1-0.6c0.2,0,0.4,0,0.5,0.1l0,0c-0.2,0-0.4,0-0.5,0c-0.3,0-0.5,0.2-0.7,0.5c-0.2,0.5,0.2,1,1,1.7
	c0.6,0.5,2.5,2.3,2.4,4.6c-0.1,1.3-1.1,2.7-2.6,3.7c-0.5-0.1-1-0.3-1.4-0.7C17,13.3,17.1,13.3,17.3,13.3z M22,19.7
	c-0.1,1-0.6,1.9-1.6,2.1c0,0,0,0,0,0c0.3-0.2,0.6-0.4,0.8-0.5c0.2-0.2,0.3-0.5,0.4-0.9c0.3-0.9,0-2-0.6-2.5
	c-0.7-0.6-1.4-0.6-2.3-0.6c-0.7,0-1.9,0-3-0.3c0-0.2,0-0.6-0.1-1c0.6,0.4,1.6,0.5,2.5,0.5c0.4,0,0.7,0.1,1.1,0.1
	C21.4,17,22,18.5,22,19.7L22,19.7z M19.3,15.8c-0.3-0.1-0.6-0.1-0.9-0.1c-1.1-0.1-2.4-0.3-3.1-1.3c-0.3-0.4-0.4-0.9-0.3-1.1
	c0,0,0,0,0,0c0.1,0,0.2,0.1,0.5,0.4c1,1.1,2.2,1.7,3.5,1.7c1.4,0,2.8-0.7,3.6-1.8c0.7-0.9,1-1.9,0.9-3c0.1,0.4,0.1,0.8,0.1,0.8
	c0.1,0.7-0.1,1.4-0.4,2.1c-0.6,1.4-2,2.2-3.8,2.4C19.6,15.7,19.3,15.8,19.3,15.8z M9.6,8.3c0.1,0,0.1,0.1,0.1,0.2
	c0,0.1-0.1,0.2-0.2,0.3c-0.1,0-0.2-0.1-0.3-0.2c0,0,0,0,0,0c0-0.1,0.1-0.2,0.2-0.3C9.5,8.2,9.6,8.2,9.6,8.3z M13.9,8.7
	c-0.1,0-0.1-0.1-0.1-0.2c0-0.1,0.1-0.2,0.2-0.2c0.1,0,0.2,0.1,0.2,0.2c0,0,0,0,0,0c0,0.1-0.1,0.2-0.2,0.3C14,8.8,13.9,8.7,13.9,8.7z
	"/>
</svg>
